<svg xmlns="http://www.w3.org/2000/svg" xmlns:xlink="http://www.w3.org/1999/xlink" preserveAspectRatio="none" width="1000" height="1000"><defs><g id="Layer0_0_FILL"><path fill="#C47A28" d="M39.1 821.45v73.2Q39.1 1000 144.45 1000h711.1q105.35 0 105.35-105.35v-73.2Q958.5 921.8 855.55 921.8h-711.1q-103 0-105.35-100.35m353.95-140.9v30.3q1.6-52.15 53.75-52.15l104.8-.8q54 0 55.05 53.45V681.6q-.8-55.05-55.05-55.05l-104.8.55q-53.2 0-53.75 53.45m-272.3 0v30.3q1.55-52.15 53.7-52.15l104.85-.8q53.95 0 55 53.45V681.6q-.75-55.05-55-55.05l-104.85.55q-53.2 0-53.7 53.45m158.55-326.6-104.85.55q-53.2 0-53.7 53.45v30.3q1.55-52.15 53.7-52.15l104.85-.8q53.95 0 55 53.45V409q-.75-55.05-55-55.05m272.3 0-104.8.55q-53.2 0-53.75 53.45v30.3q1.6-52.15 53.75-52.15l104.8-.8q54 0 55.05 53.45V409q-.8-55.05-55.05-55.05m-217.3-187.5V136.7q-.75-55.05-55-55.05l-104.85.5q-53.2 0-53.7 53.45v30.3q1.55-52.15 53.7-52.15l104.85-.8q53.95 0 55 53.5m272.35 0V136.7q-.8-55.05-55.05-55.05l-104.8.5q-53.2 0-53.75 53.45v30.3q1.6-52.15 53.75-52.15l104.8-.8q54 0 55.05 53.5m112.7 460.35q-53.2 0-53.7 53.5v30.25q1.6-52.15 53.7-52.15l104.85-.75q54 0 55.05 53.45v-29.75q-.8-55.05-55.05-55.05l-104.85.5m104.6-272.85-104.85.55q-53.2 0-53.7 53.45v30.3q1.55-52.15 53.7-52.15l104.85-.8q54 0 55.05 53.45V409q-.8-55.05-55.05-55.05m55.3-187.5V136.7q-.8-55.05-55.05-55.05l-104.85.5q-53.2 0-53.7 53.45v30.3q1.6-52.15 53.7-52.15l104.85-.8q54 0 55.05 53.5Z"/><path fill="#FFC654" d="M960.9 105.35Q960.9 0 855.55 0h-711.1Q39.1 0 39.1 105.35v716.1Q41.45 921.8 144.45 921.8h711.1q102.95 0 105.35-100.35v-716.1m-81.65 31.35v110.05q-1.6 47.4-54.25 46.9l-105.65 1.6q-52.4 0-53.7-49.55V135.6q.5-53.45 53.7-53.45l104.85-.5q54.25 0 55.05 55.05M719.1 354.5l104.85-.55q54.25 0 55.05 55.05v110.1q-1.6 47.4-54.3 46.85l-105.6 1.6q-52.4 0-53.7-49.5v-110.1q.5-53.45 53.7-53.45m-53.45 325.8q.5-53.5 53.7-53.5l104.85-.5q54.25 0 55.05 55.05V791.4q-1.6 47.45-54.25 46.9l-105.65 1.6q-52.4 0-53.7-49.55V680.3m-59-543.6v110.05q-1.6 47.4-54.25 46.9l-105.6 1.6q-52.45 0-53.75-49.55V135.6q.55-53.45 53.75-53.45l104.8-.5q54.25 0 55.05 55.05m-272.35 0v110.05q-1.55 47.4-54.25 46.9l-105.6 1.6q-52.4 0-53.7-49.55V135.6q.5-53.45 53.7-53.45l104.85-.5q54.25 0 55 55.05m112.5 217.8 104.8-.55q54.25 0 55.05 55.05v110.1q-1.6 47.4-54.25 46.85l-105.6 1.6q-52.45 0-53.75-49.5v-110.1q.55-53.45 53.75-53.45m-272.35 0 104.85-.55q54.25 0 55 55.05v110.1q-1.55 47.4-54.25 46.85l-105.6 1.6q-52.4 0-53.7-49.5v-110.1q.5-53.45 53.7-53.45m-53.7 436.15v-110.1q.5-53.45 53.7-53.45l104.85-.55q54.25 0 55 55.05v110.1q-1.55 47.4-54.25 46.85l-105.6 1.6q-52.4 0-53.7-49.5m272.3 0v-110.1q.55-53.45 53.75-53.45l104.8-.55q54.25 0 55.05 55.05v110.1q-1.6 47.4-54.25 46.85l-105.6 1.6q-52.45 0-53.75-49.5Z"/><path fill="#EE9531" d="M393.05 710.85v79.8q1.3 49.5 53.75 49.5l105.6-1.6q52.65.55 54.25-46.85v-80.35q-1.05-53.45-55.05-53.45l-104.8.8q-52.15 0-53.75 52.15m-272.3 0v79.8q1.3 49.5 53.7 49.5l105.6-1.6q52.7.55 54.25-46.85v-80.35q-1.05-53.45-55-53.45l-104.85.8q-52.15 0-53.7 52.15M279.3 385.3l-104.85.8q-52.15 0-53.7 52.15v79.8q1.3 49.5 53.7 49.5l105.6-1.6q52.7.55 54.25-46.85v-80.35q-1.05-53.45-55-53.45m272.3 0-104.8.8q-52.15 0-53.75 52.15v79.8q1.3 49.5 53.75 49.5l105.6-1.6q52.65.55 54.25-46.85v-80.35q-1.05-53.45-55.05-53.45M334.3 245.2v-78.75q-1.05-53.5-55-53.5l-104.85.8q-52.15 0-53.7 52.15v79.8q1.3 49.55 53.7 49.55l105.6-1.6q52.7.5 54.25-46.9v-1.55m272.35-78.75q-1.05-53.5-55.05-53.5l-104.8.8q-52.15 0-53.75 52.15v79.8q1.3 49.55 53.75 49.55l105.6-1.6q52.65.5 54.25-46.9v-80.3m59 544.1v79.8q1.3 49.55 53.7 49.55L825 838.3q52.65.55 54.25-46.9v-80.3q-1.05-53.45-55.05-53.45l-104.85.75q-52.1 0-53.7 52.15m158.3-325.25-104.85.8q-52.15 0-53.7 52.15v79.8q1.3 49.5 53.7 49.5l105.6-1.6q52.7.55 54.3-46.85v-80.35q-1.05-53.45-55.05-53.45m55.3-218.85q-1.05-53.5-55.05-53.5l-104.85.8q-52.1 0-53.7 52.15v79.8q1.3 49.55 53.7 49.55l105.65-1.6q52.65.5 54.25-46.9v-80.3Z"/></g></defs><use xlink:href="#Layer0_0_FILL"/></svg>